<?xml version="1.0" encoding="UTF-8"?>
<svg id="LOGO" xmlns="http://www.w3.org/2000/svg" viewBox="0 0 560.62 251.9">
  <defs>
    <style>
      .cls-1 {
        fill: #f7e825;
      }

      .cls-2 {
        fill: #eb1d48;
      }

      .cls-3 {
        fill: #293679;
      }
    </style>
  </defs>
  <g>
    <g>
      <path class="cls-1" d="m453.86,137.61c0,4.49-3.62,8.1-8.09,8.1s-8.08-3.61-8.08-8.1,3.62-8.08,8.08-8.08,8.09,3.63,8.09,8.08Z"/>
      <path class="cls-2" d="m147.8,77.12c0,4.49-3.62,8.1-8.09,8.1s-8.08-3.61-8.08-8.1,3.62-8.08,8.08-8.08,8.09,3.63,8.09,8.08Z"/>
      <path class="cls-2" d="m358.94,77.12c0,4.49-3.62,8.1-8.09,8.1s-8.08-3.61-8.08-8.1,3.62-8.08,8.08-8.08,8.09,3.63,8.09,8.08Z"/>
    </g>
    <g>
      <path class="cls-3" d="m232.68,131.69c8.11,0,13.35-5.24,17.06-5.24s6.47,2.57,6.47,6.27c0,6.38-10.28,13.58-24.35,13.58-15.94,0-28.06-12.14-28.06-28.68s11.71-28.98,27.23-28.98,26.41,12.34,26.41,26.83c0,5.55-2.57,6.57-8.02,6.57h-28.98c.73,6.07,5.25,9.66,12.24,9.66Zm8.93-20.24c-.4-5.65-5.03-9.67-10.48-9.67s-9.75,3.71-10.89,9.67h21.38Z"/>
      <path class="cls-3" d="m154.37,101.89c-.62-1.64-.92-3.18-.92-4.41,0-4.52,3.39-8.01,7.81-8.01s6.58,2.56,8.33,7.91l8.83,28.16,8.73-29.18c1.35-4.43,3.92-6.69,7.61-6.69,4.53,0,7.61,3.19,7.61,7.92,0,1.53-.42,3.29-1.24,5.34l-13.67,35.35c-1.96,5.15-4.01,7.92-9.25,7.92s-7.5-2.77-9.76-8.43l-14.08-35.88Z"/>
      <path class="cls-3" d="m350.91,145.58c-5.55,0-8.12-3.91-8.12-11.82v-32.59c0-7.9,2.57-11.71,8.12-11.71s8.01,3.81,8.01,11.71v32.59c0,7.91-2.47,11.82-8.01,11.82Z"/>
      <path class="cls-3" d="m329.19,89.67c4.51,0,7.58,3.18,7.58,7.92,0,1.64-.51,3.29-1.22,5.34l-12.44,35.35c-1.94,5.44-4.41,7.92-9.24,7.92s-8.33-3.08-9.76-8.43l-6.69-25.8-6.26,26.31c-1.13,4.71-4.42,7.92-9.26,7.92-5.14,0-7.61-2.47-9.75-8.43l-12.86-35.88c-.62-1.74-.92-3.18-.92-4.4,0-4.53,3.38-8.02,7.8-8.02,4.11,0,6.78,2.57,8.33,7.91l8.53,29.6,6.89-29.7c1.13-4.72,3.8-7.3,7.5-7.3,4.11,0,6.98,2.58,8.23,7.51l7.4,29.08,8.52-30.22c1.24-4.32,3.92-6.69,7.62-6.69Z"/>
      <path class="cls-3" d="m366.82,101.17c0-7.9,2.57-11.71,8.12-11.71,3.18,0,5.75,1.64,7.71,5.13,3.39-3.6,7.19-5.44,10.99-5.44,4.51,0,8.22,3.69,8.22,8.02,0,6.48-7.2,6.98-13.77,10.09-4.52,2.15-5.04,4.1-5.04,9.64v16.87c0,7.91-2.57,11.82-8.11,11.82s-8.12-3.91-8.12-11.82v-32.59Z"/>
      <path class="cls-3" d="m428.33,132.12c8.12,0,11.04,12.98-.43,13.88-2.12.17-4.7-.01-6.67-.42-12.79-2.62-21.77-13.62-21.77-27.96,0-16.55,11.72-28.98,27.24-28.98s26.41,12.34,26.41,26.83c0,5.55-2.56,6.57-8.01,6.57h-28.98c.71,6.07,5.24,10.08,12.21,10.08Zm8.96-20.67c-.42-5.65-5.03-9.67-10.49-9.67s-9.77,3.73-10.89,9.67h21.38Z"/>
      <path class="cls-3" d="m139.77,145.58c-5.56,0-8.13-3.91-8.13-11.82v-32.59c0-7.9,2.57-11.7,8.13-11.7s8.01,3.8,8.01,11.7v32.59c0,7.91-2.46,11.82-8.01,11.82Z"/>
      <path class="cls-3" d="m115.07,66.44c5.46,0,8.02,3.9,8.02,11.83v55.5c0,7.91-2.47,11.82-8.02,11.82s-8.11-3.91-8.11-11.82v-55.5c0-7.93,2.57-11.83,8.11-11.83Z"/>
    </g>
  </g>
  <g>
    <path class="cls-3" d="m128.44,167.64c0,5.38-4.25,9.53-9.38,9.53-3.24,0-5.82-1.56-7.34-4v10.84h-2.4v-25.45h2.4v3.56c1.53-2.44,4.11-4,7.34-4,5.13,0,9.38,4.15,9.38,9.53Zm-2.4,0c0-4.04-3.13-7.2-7.16-7.2s-7.16,3.16-7.16,7.2,3.13,7.2,7.16,7.2,7.16-3.16,7.16-7.2Z"/>
    <path class="cls-3" d="m131.35,167.64c0-5.38,4.25-9.53,9.56-9.53s9.56,4.15,9.56,9.53-4.25,9.53-9.56,9.53-9.56-4.15-9.56-9.53Zm16.73,0c0-4.04-3.13-7.2-7.16-7.2s-7.16,3.16-7.16,7.2,3.13,7.2,7.16,7.2,7.16-3.16,7.16-7.2Z"/>
    <path class="cls-3" d="m178.11,158.55l-5.6,18.18h-2.62l-4.69-14.65-4.69,14.65h-2.62l-5.6-18.18h2.47l4.47,15.09,4.76-15.09h2.4l4.76,15.09,4.47-15.09h2.47Z"/>
    <path class="cls-3" d="m198.45,167.72c0,.36-.04.76-.07,1.13h-15.96c.51,3.71,3.38,6,7.24,6,2.87,0,4.87-1.35,5.85-3.09l2.11,1.24c-1.53,2.47-4.33,4.18-8,4.18-5.75,0-9.67-4.04-9.67-9.53s3.85-9.53,9.49-9.53,9.02,4.62,9.02,9.6Zm-16.04-1.2h13.56c-.51-4-3.42-6.07-6.54-6.07-3.82,0-6.55,2.51-7.02,6.07Z"/>
    <path class="cls-3" d="m210.41,158.26v2.33c-2.91,0-5.75,1.53-5.75,6.04v10.11h-2.4v-18.18h2.4v3.02c1.27-2.55,3.42-3.31,5.75-3.31Z"/>
    <path class="cls-3" d="m230.01,167.72c0,.36-.04.76-.07,1.13h-15.96c.51,3.71,3.38,6,7.24,6,2.87,0,4.87-1.35,5.85-3.09l2.11,1.24c-1.53,2.47-4.33,4.18-8,4.18-5.75,0-9.67-4.04-9.67-9.53s3.85-9.53,9.49-9.53,9.02,4.62,9.02,9.6Zm-16.04-1.2h13.56c-.51-4-3.42-6.07-6.54-6.07-3.82,0-6.55,2.51-7.02,6.07Z"/>
    <path class="cls-3" d="m251.87,151.28v25.45h-2.4v-3.56c-1.53,2.44-4.11,4-7.34,4-5.13,0-9.38-4.15-9.38-9.53s4.25-9.53,9.38-9.53c3.24,0,5.82,1.56,7.34,4v-10.84h2.4Zm-2.4,16.36c0-4.04-3.13-7.2-7.16-7.2s-7.16,3.16-7.16,7.2,3.13,7.2,7.16,7.2,7.16-3.16,7.16-7.2Z"/>
    <path class="cls-3" d="m285.18,167.64c0,5.38-4.25,9.53-9.38,9.53-3.24,0-5.82-1.56-7.34-4v3.56h-2.4v-25.45h2.4v10.84c1.53-2.44,4.11-4,7.34-4,5.13,0,9.38,4.15,9.38,9.53Zm-2.4,0c0-4.04-3.13-7.2-7.16-7.2s-7.16,3.16-7.16,7.2,3.13,7.2,7.16,7.2,7.16-3.16,7.16-7.2Z"/>
    <path class="cls-3" d="m304.1,158.55l-7.78,19.85c-1.38,3.49-4.07,5.85-7.34,5.6v-2.25c2.36.25,4-1.42,4.98-3.78l.47-1.13-8.15-18.29h2.55l6.84,15.24,5.89-15.24h2.54Z"/>
    <path class="cls-3" d="m315.01,170.95l2.18-1.27c.91,3.05,3.31,5.02,7.31,5.02s6-1.85,6-4.58c0-2.95-2.51-3.89-6.25-5.13-4.15-1.38-8.15-2.47-8.15-7.16s3.6-6.98,7.82-6.98,7.09,2.47,8.4,5.49l-2.15,1.2c-.95-2.29-2.91-4.22-6.25-4.22-3.05,0-5.27,1.6-5.27,4.4s2.18,3.64,5.64,4.76c4.62,1.53,8.76,2.84,8.76,7.56,0,4.36-3.49,7.13-8.58,7.13-4.69,0-8.14-2.36-9.45-6.22Z"/>
    <path class="cls-3" d="m340.9,160.88v11.02c0,3.13,1.71,2.87,5.24,2.73v2.11c-4.91.73-7.64-.47-7.64-4.84v-11.02h-3.82v-2.33h3.82v-4.36l2.4-.73v5.09h5.24v2.33h-5.24Z"/>
    <path class="cls-3" d="m367.09,158.55v18.18h-2.4v-3.56c-1.53,2.44-4.11,4-7.34,4-5.13,0-9.38-4.15-9.38-9.53s4.25-9.53,9.38-9.53c3.24,0,5.82,1.56,7.34,4v-3.56h2.4Zm-2.4,9.09c0-4.04-3.13-7.2-7.16-7.2s-7.16,3.16-7.16,7.2,3.13,7.2,7.16,7.2,7.16-3.16,7.16-7.2Z"/>
    <path class="cls-3" d="m380.33,158.26v2.33c-2.91,0-5.75,1.53-5.75,6.04v10.11h-2.4v-18.18h2.4v3.02c1.27-2.55,3.42-3.31,5.75-3.31Z"/>
    <path class="cls-3" d="m383.6,150.19h2.4v26.54h-2.4v-26.54Z"/>
    <path class="cls-3" d="m390.55,152.95c0-.95.76-1.75,1.75-1.75s1.75.8,1.75,1.75-.76,1.75-1.75,1.75-1.75-.8-1.75-1.75Zm.54,5.6h2.4v18.18h-2.4v-18.18Z"/>
    <path class="cls-3" d="m416.62,158.55v17.45c0,5.53-4.44,8.44-9.13,8.44-4.18,0-7.2-1.6-8.62-4.44l2.11-1.2c.91,1.85,2.58,3.31,6.51,3.31,4.22,0,6.73-2.4,6.73-6.11v-2.84c-1.53,2.44-4.11,4-7.34,4-5.13,0-9.38-4.15-9.38-9.53s4.25-9.53,9.38-9.53c3.24,0,5.82,1.56,7.34,4v-3.56h2.4Zm-2.4,9.09c0-4.04-3.13-7.2-7.16-7.2s-7.16,3.16-7.16,7.2,3.13,7.2,7.16,7.2,7.16-3.16,7.16-7.2Z"/>
    <path class="cls-3" d="m437.35,165.57v11.16h-2.4v-11.16c0-3.24-1.78-5.13-4.95-5.13s-5.89,1.89-5.89,6.76v9.53h-2.4v-25.45h2.4v10.11c1.42-2.29,3.53-3.27,6.11-3.27,4.44,0,7.13,2.91,7.13,7.45Z"/>
    <path class="cls-3" d="m446.41,160.88v11.02c0,3.13,1.71,2.87,5.24,2.73v2.11c-4.91.73-7.64-.47-7.64-4.84v-11.02h-3.82v-2.33h3.82v-4.36l2.4-.73v5.09h5.24v2.33h-5.24Z"/>
  </g>
</svg>