<?xml version="1.0" encoding="UTF-8"?>
<svg id="Layer_1" data-name="Layer 1" xmlns="http://www.w3.org/2000/svg" xmlns:xlink="http://www.w3.org/1999/xlink" viewBox="0 0 60 87">
  <defs>
    <style>
      .cls-1 {
        fill: #fff;
      }

      .cls-2 {
        fill: none;
        mask: url(#mask);
      }
    </style>
    <mask id="mask" x="-18" y="0" width="78" height="87" maskUnits="userSpaceOnUse">
      <g id="mask-2">
        <rect id="path-1" class="cls-1" y="0" width="60" height="87"/>
      </g>
    </mask>
  </defs>
  <g id="Assets">
    <g id="Group">
      <g class="cls-2">
        <path id="Shape" class="cls-1" d="m56.78,86.93c-.56,0-1.08-.13-1.61-.43l-34.19-19.66-34.15,19.66c-1.25.72-2.82.53-3.88-.53s-1.25-2.59-.53-3.87L2.1,47.94-17.54,13.8c-.72-1.25-.53-2.82.53-3.84,1.02-1.05,2.59-1.25,3.84-.53L21.02,29.09,55.17,9.43c1.25-.72,2.82-.53,3.88.53,1.02,1.02,1.25,2.59.53,3.87l-19.67,34.17,19.67,34.17c.72,1.25.53,2.82-.53,3.87-.62.62-1.44.95-2.27.95v-.07ZM-6.04,20.92l14.68,25.47c.56.98.56,2.2,0,3.18l-14.68,25.47,25.48-14.67c.99-.56,2.2-.56,3.19,0l25.48,14.67-14.68-25.47c-.56-.98-.56-2.2,0-3.18l14.68-25.47-25.48,14.67c-.99.56-2.2.56-3.19,0L-6.04,20.92Z"/>
      </g>
    </g>
  </g>
</svg>